<?xml version="1.0" standalone="no"?>
<!DOCTYPE svg PUBLIC "-//W3C//DTD SVG 20010904//EN"
 "http://www.w3.org/TR/2001/REC-SVG-20010904/DTD/svg10.dtd">
<svg version="1.0" xmlns="http://www.w3.org/2000/svg"
 width="344.000000pt" height="344.000000pt" viewBox="0 0 344.000000 344.000000"
 preserveAspectRatio="xMidYMid meet">
<metadata>
Created by potrace 1.16, written by Peter Selinger 2001-2019
</metadata>
<g transform="translate(0.000000,344.000000) scale(0.100000,-0.100000)"
fill="#000000" stroke="none">
<path d="M1675 2810 c-517 -59 -965 -349 -1232 -797 -211 -355 -275 -793 -175
-1192 26 -101 29 -107 62 -123 20 -10 80 -28 135 -40 137 -30 503 -33 635 -5
516 110 933 435 1156 901 108 226 144 378 151 641 5 163 2 207 -15 310 -30
171 -47 222 -80 239 -103 52 -447 87 -637 66z m388 -176 c151 -24 142 -17 163
-131 28 -147 26 -395 -4 -528 -70 -307 -195 -539 -407 -751 -214 -215 -452
-342 -765 -410 -118 -26 -407 -25 -530 2 l-85 19 -18 70 c-13 50 -20 122 -24
250 -5 157 -3 194 16 292 58 305 190 553 411 773 234 235 500 368 840 423 68
11 311 6 403 -9z"/>
<path d="M1384 2080 c-28 -11 -54 -48 -54 -77 0 -12 14 -39 32 -58 l31 -36
-36 -36 -35 -36 -32 26 c-44 37 -100 37 -129 1 -29 -37 -26 -67 11 -109 l31
-36 -36 -37 -36 -36 -23 21 c-55 50 -102 52 -138 6 -28 -36 -25 -67 11 -107
l31 -36 -21 -26 c-29 -37 -26 -70 8 -105 35 -34 54 -36 100 -8 l34 20 26 -24
c36 -34 65 -41 99 -23 51 26 57 86 15 136 l-26 32 36 36 37 36 30 -29 c83 -80
188 26 113 115 l-26 32 36 35 36 36 36 -31 c40 -36 54 -38 94 -17 49 25 55 79
15 132 -23 31 -24 35 -10 55 31 44 19 101 -26 124 -31 16 -62 12 -90 -13 -15
-13 -20 -12 -50 10 -41 31 -67 38 -94 27z"/>
<path d="M2753 2055 c-47 -33 -35 -117 20 -143 57 -28 117 12 117 76 0 69 -79
108 -137 67z"/>
<path d="M2695 1528 c-49 -26 -60 -86 -24 -132 l20 -26 175 0 c160 0 176 2
194 20 42 42 32 111 -20 137 -32 16 -316 17 -345 1z"/>
<path d="M2181 986 c-47 -26 -55 -93 -16 -131 l24 -25 300 0 c165 0 307 3 316
6 19 8 45 55 45 84 0 12 -13 35 -29 51 l-29 29 -294 0 c-227 -1 -298 -4 -317
-14z"/>
<path d="M3155 975 c-36 -35 -35 -96 1 -124 46 -36 106 -24 132 26 19 35 14
63 -17 94 -38 37 -82 39 -116 4z"/>
</g>
</svg>
