<?xml version="1.0" standalone="no"?>
<!DOCTYPE svg PUBLIC "-//W3C//DTD SVG 20010904//EN"
 "http://www.w3.org/TR/2001/REC-SVG-20010904/DTD/svg10.dtd">
<svg version="1.0" xmlns="http://www.w3.org/2000/svg"
 width="344.000000pt" height="344.000000pt" viewBox="0 0 344.000000 344.000000"
 preserveAspectRatio="xMidYMid meet">
<metadata>
Created by potrace 1.16, written by Peter Selinger 2001-2019
</metadata>
<g transform="translate(0.000000,344.000000) scale(0.100000,-0.100000)"
fill="#000000" stroke="none">
<path d="M2195 3090 c-135 -10 -246 -28 -319 -51 -34 -11 -82 -24 -108 -29
-72 -14 -231 -76 -348 -136 -503 -256 -875 -718 -1019 -1264 -50 -191 -65
-313 -65 -525 1 -151 5 -216 23 -319 50 -284 92 -345 272 -389 503 -124 1072
-35 1517 236 142 87 245 169 373 296 472 471 677 1144 549 1805 -26 133 -44
184 -81 229 -44 54 -110 83 -251 112 -110 22 -353 47 -418 43 -14 0 -70 -4
-125 -8z m310 -120 c131 -13 297 -45 343 -67 46 -22 70 -60 91 -150 61 -247
70 -530 26 -770 -19 -99 -102 -348 -155 -461 -212 -452 -614 -814 -1085 -977
-44 -15 -93 -33 -110 -40 -41 -18 -232 -54 -337 -63 -112 -10 -369 2 -483 22
-245 44 -268 62 -304 242 -52 252 -54 550 -6 774 14 68 30 129 34 135 5 5 19
42 31 80 100 308 312 621 564 832 182 153 423 288 629 353 56 18 116 38 132
45 49 21 211 47 335 54 122 7 124 7 295 -9z"/>
<path d="M2065 2289 l-56 -52 -37 36 -38 37 -42 -43 -42 -43 37 -37 37 -37
-29 -30 -29 -30 -38 37 -38 37 -42 -42 -42 -42 37 -38 37 -38 -32 -32 -32 -32
-38 37 -38 37 -42 -42 -42 -42 37 -38 37 -38 -30 -29 -30 -29 -38 37 -38 37
-37 -38 c-20 -21 -37 -42 -37 -47 0 -5 14 -24 32 -42 l32 -33 -29 -30 -29 -30
-38 37 -38 37 -42 -42 -42 -42 37 -38 37 -38 -30 -29 -30 -29 -37 37 -37 37
-43 -42 -43 -42 37 -38 36 -37 -51 -55 c-30 -32 -52 -64 -52 -77 0 -14 32 -55
92 -115 111 -114 120 -116 195 -42 l53 52 40 -39 40 -39 42 42 42 42 -39 40
-39 40 29 30 29 30 36 -35 c20 -19 40 -35 46 -35 12 0 74 62 74 75 0 5 -16 25
-35 45 l-35 36 30 29 30 29 40 -39 40 -39 42 42 42 42 -39 40 -39 40 29 30 29
30 36 -35 c20 -19 40 -35 46 -35 13 0 74 63 74 76 0 6 -16 25 -35 44 l-35 34
32 33 32 33 41 -40 41 -40 38 39 c42 43 41 60 -11 101 l-27 21 32 32 32 31 40
-39 40 -39 42 42 42 42 -39 40 -39 40 52 53 c33 34 52 61 52 76 0 31 -163 197
-202 207 -23 5 -35 -2 -83 -47z"/>
</g>
</svg>
