<?xml version="1.0" standalone="no"?>
<!DOCTYPE svg PUBLIC "-//W3C//DTD SVG 20010904//EN"
 "http://www.w3.org/TR/2001/REC-SVG-20010904/DTD/svg10.dtd">
<svg version="1.0" xmlns="http://www.w3.org/2000/svg"
 width="344.000000pt" height="344.000000pt" viewBox="0 0 344.000000 344.000000"
 preserveAspectRatio="xMidYMid meet">
<metadata>
Created by potrace 1.16, written by Peter Selinger 2001-2019
</metadata>
<g transform="translate(0.000000,344.000000) scale(0.100000,-0.100000)"
fill="#000000" stroke="none">
<path d="M1320 3144 c-102 -12 -235 -40 -315 -66 -494 -160 -860 -578 -961
-1098 -25 -129 -25 -388 0 -515 39 -200 106 -368 210 -524 96 -144 188 -204
332 -218 58 -5 64 -4 88 20 19 19 26 36 26 65 0 53 -29 78 -99 85 -109 13
-182 85 -274 272 -93 188 -130 348 -130 560 0 350 135 662 390 906 138 132
288 221 478 285 639 214 1347 -136 1571 -776 l23 -65 -272 -137 c-302 -152
-358 -192 -435 -311 -43 -64 -92 -191 -92 -235 0 -33 51 -82 87 -82 43 0 70
25 89 83 20 60 59 143 73 151 5 4 68 -56 141 -131 l131 -138 -48 -3 c-68 -3
-91 -10 -113 -32 -26 -26 -26 -80 1 -114 l20 -26 157 -1 157 0 99 -105 98
-104 -370 0 -370 0 -6 45 c-12 79 -82 203 -155 275 -113 111 -234 160 -396
161 -140 1 -231 -28 -342 -107 -80 -57 -113 -100 -113 -147 0 -50 28 -77 81
-77 35 0 47 7 92 49 96 91 225 134 334 112 153 -30 267 -127 317 -269 l15 -42
-213 0 c-209 0 -213 0 -234 -23 -13 -14 -22 -36 -22 -54 0 -86 22 -93 269 -93
l201 0 -19 -50 c-86 -226 -361 -326 -567 -205 -117 69 -204 219 -204 354 0 61
-89 94 -141 52 -22 -17 -24 -27 -23 -94 2 -136 61 -267 168 -372 146 -144 340
-196 540 -145 109 28 169 63 257 150 81 80 129 161 151 258 l13 52 182 0 c101
0 183 -3 183 -7 0 -5 -11 -51 -25 -103 -26 -101 -32 -191 -14 -237 15 -40 67
-92 114 -114 36 -17 70 -19 368 -19 l328 0 23 23 c19 19 41 94 116 398 68 275
91 385 87 416 -7 62 -50 128 -105 160 l-47 28 -300 5 -300 5 -165 170 c-91 94
-176 182 -189 197 l-23 27 273 136 c151 76 284 146 297 158 16 15 22 32 22 65
0 83 -95 327 -178 456 -214 334 -567 573 -947 641 -88 16 -326 27 -395 19z
m1880 -2069 c10 -12 -1 -68 -59 -303 -40 -158 -76 -304 -82 -324 l-10 -38
-264 0 c-226 0 -266 2 -279 16 -20 19 -21 12 9 124 14 52 30 112 36 133 l10
37 215 0 c215 0 215 0 239 25 18 17 25 35 25 61 0 32 -10 47 -82 123 -46 47
-99 103 -117 124 l-35 37 191 0 c157 0 193 -3 203 -15z"/>
<path d="M1278 2814 c-161 -25 -335 -94 -467 -187 -74 -52 -216 -190 -237
-229 -33 -63 3 -132 70 -132 32 0 45 9 124 90 173 178 362 271 601 295 119 12
144 21 160 56 18 39 13 63 -18 94 -26 26 -36 29 -88 28 -32 -1 -97 -7 -145
-15z"/>
<path d="M431 2133 c-12 -10 -24 -35 -28 -55 -5 -32 -1 -41 25 -68 17 -16 40
-30 52 -30 29 0 76 26 84 45 13 34 6 85 -14 105 -25 25 -89 27 -119 3z"/>
</g>
</svg>
