<?xml version="1.0" standalone="no"?>
<!DOCTYPE svg PUBLIC "-//W3C//DTD SVG 20010904//EN"
 "http://www.w3.org/TR/2001/REC-SVG-20010904/DTD/svg10.dtd">
<svg version="1.0" xmlns="http://www.w3.org/2000/svg"
 width="452.000000pt" height="452.000000pt" viewBox="0 0 452.000000 452.000000"
 preserveAspectRatio="xMidYMid meet">
<metadata>
Created by potrace 1.16, written by Peter Selinger 2001-2019
</metadata>
<g transform="translate(0.000000,452.000000) scale(0.100000,-0.100000)"
fill="#000000" stroke="none">
<path d="M1759 4129 c-447 -32 -870 -228 -1186 -550 -113 -115 -150 -160 -223
-269 -324 -482 -407 -1084 -226 -1635 54 -162 122 -306 206 -432 99 -148 176
-214 304 -262 66 -24 169 -37 211 -27 32 8 75 52 75 77 0 17 10 19 119 19
l118 0 6 -75 c14 -165 105 -347 228 -460 343 -315 884 -250 1138 136 45 70 95
190 106 257 l7 42 244 0 c134 0 244 -2 244 -3 0 -2 -18 -76 -41 -163 -42 -163
-44 -192 -19 -285 15 -53 89 -132 152 -160 53 -24 56 -24 463 -27 433 -3 473
0 500 41 17 27 255 986 255 1031 0 99 -72 209 -165 252 -50 24 -52 24 -432 24
l-383 0 -153 158 c-274 281 -352 363 -355 372 -2 5 168 94 376 199 353 177
381 193 396 226 16 33 16 41 2 104 -54 239 -202 536 -361 727 -287 344 -666
572 -1087 653 -99 19 -330 43 -387 40 -14 -1 -74 -5 -132 -10z m111 -224 c33
-17 60 -61 60 -97 0 -32 -36 -87 -63 -97 -12 -4 -69 -13 -127 -20 -326 -39
-626 -185 -854 -417 -43 -44 -92 -98 -108 -121 -17 -23 -46 -49 -65 -58 -94
-45 -193 52 -146 141 29 53 152 191 237 265 253 220 556 360 875 404 130 18
157 18 191 0z m-1354 -986 c49 -24 68 -98 38 -148 -22 -37 -48 -52 -93 -53
-48 0 -77 15 -96 52 -20 38 -19 68 4 110 28 53 86 68 147 39z m2415 -1031 c80
-84 160 -170 178 -190 l33 -38 -92 0 c-102 0 -123 -7 -145 -50 -19 -37 -19
-73 1 -111 26 -51 62 -59 266 -59 131 -1 187 -4 198 -13 8 -7 69 -68 134 -135
l120 -122 -488 0 -487 0 3 308 3 307 31 85 c30 83 77 170 92 170 4 0 73 -69
153 -152z m-902 -313 c94 -23 177 -70 251 -145 67 -67 122 -162 135 -233 l7
-37 -277 0 -277 0 -34 -34 c-22 -22 -34 -44 -34 -60 0 -35 25 -83 49 -96 12
-6 126 -10 297 -10 l277 0 -7 -32 c-13 -68 -78 -180 -140 -242 -164 -164 -401
-202 -616 -99 -84 40 -192 154 -234 245 -35 75 -56 162 -56 231 0 29 -7 45
-29 68 -16 16 -37 29 -47 29 -14 0 -16 6 -10 42 4 22 19 71 34 107 l28 66 56
-3 56 -4 72 67 c149 136 316 183 499 140z m2155 -146 c14 -7 28 -19 31 -28 3
-9 -42 -208 -102 -443 l-108 -428 -332 0 c-186 0 -343 4 -357 10 -51 19 -51
36 0 230 l47 180 273 0 c150 0 284 4 298 10 54 20 78 111 43 161 -9 12 -74 81
-145 153 -70 72 -134 139 -141 149 -13 16 0 17 227 17 159 0 250 -4 266 -11z"/>
</g>
</svg>
